# xmcd CD database file
#
# Track frame offsets:
#	150
#	23640
#	52417
#	77885
#	96605
#	120580
#	140265
#	160762
#	184725
#	209917
#	242475
#	271870
#	308570
#
# Disc length: 4496 seconds
#
# Revision: 3
# Processed by: cddbd v1.5.1PL2 Copyright (c) Steve Scherf et al.
# Submitted via: CDex 1.40Beta9
#
DISCID=b6118e0d
DTITLE=Axel Zwingenberger - Boogie In The Barrelhouse
DYEAR=1994
DGENRE=Blues
TTITLE0=Boogie In The Barrelhouse
TTITLE1=Easy, Squeezy!
TTITLE2=Screwin' The Boogie
TTITLE3=Great Big Legs, And How To Move 'Em
TTITLE4=Blue Note Boogie
TTITLE5=Bookre T.'s Blues
TTITLE6=Blue Note Blues
TTITLE7=KC Jiving
TTITLE8=Fun For Felix
TTITLE9=10 How Long Blues
TTITLE10=Houserockin'
TTITLE11=Storm Boogie
TTITLE12=Our Hearts Belong To The Blues
EXTD=YEAR: 1994 ID3G: 0
EXTT0=
EXTT1=
EXTT2=
EXTT3=
EXTT4=
EXTT5=
EXTT6=
EXTT7=
EXTT8=
EXTT9=
EXTT10=
EXTT11=
EXTT12=
PLAYORDER=
